<?xml version="1.0" encoding="UTF-8" standalone="no"?>
<!-- Created with Inkscape (http://www.inkscape.org/) -->

<svg
   width="254mm"
   height="128.5mm"
   viewBox="0 0 254 128.5"
   version="1.1"
   id="svg1"
   inkscape:version="1.3 (0e150ed6c4, 2023-07-21)"
   sodipodi:docname="ptone-vpc40.svg"
   xmlns:inkscape="http://www.inkscape.org/namespaces/inkscape"
   xmlns:sodipodi="http://sodipodi.sourceforge.net/DTD/sodipodi-0.dtd"
   xmlns="http://www.w3.org/2000/svg"
   xmlns:svg="http://www.w3.org/2000/svg">
  <sodipodi:namedview
     id="namedview1"
     pagecolor="#ffffff"
     bordercolor="#666666"
     borderopacity="1.0"
     inkscape:showpageshadow="2"
     inkscape:pageopacity="0.0"
     inkscape:pagecheckerboard="0"
     inkscape:deskcolor="#d1d1d1"
     inkscape:document-units="mm"
     showgrid="false"
     inkscape:zoom="1.0253718"
     inkscape:cx="334.02519"
     inkscape:cy="327.1984"
     inkscape:window-width="2560"
     inkscape:window-height="1375"
     inkscape:window-x="0"
     inkscape:window-y="0"
     inkscape:window-maximized="1"
     inkscape:current-layer="layer1">
    <inkscape:grid
       id="grid1"
       units="px"
       originx="0"
       originy="0"
       spacingx="0.26458333"
       spacingy="0.26458334"
       empcolor="#0099e5"
       empopacity="0.30196078"
       color="#0099e5"
       opacity="0.14901961"
       empspacing="5"
       dotted="false"
       gridanglex="30"
       gridanglez="30"
       visible="false" />
  </sodipodi:namedview>
  <defs
     id="defs1" />
  <g
     inkscape:groupmode="layer"
     id="layer4"
     inkscape:label="bg">
    <rect
       style="fill:#f3f3f3;fill-opacity:1;stroke:none;stroke-width:0.691012;stroke-dasharray:5.51941, 2.7597"
       id="rect1"
       width="253.30899"
       height="127.80899"
       x="0.34550625"
       y="0.34550625" />
  </g>
  <g
     inkscape:label="Layer 1"
     inkscape:groupmode="layer"
     id="layer1"
     style="opacity:1;fill:#1a1a1a">
    <path
       d="m 10.678232,116.7691 -2.6987413,7.55648 H 7.0269937 L 4.3282523,116.7691 h 0.9948302 l 1.7039112,4.84715 q 0.1693328,0.46567 0.2857491,0.87842 0.1164163,0.40216 0.1904994,0.77258 0.074083,-0.37042 0.1904994,-0.78317 0.1164163,-0.41275 0.2857491,-0.88899 l 1.6933279,-4.82599 z m 3.026828,0 q 1.481662,0 2.158993,0.58208 0.677331,0.58208 0.677331,1.64041 0,0.62442 -0.285749,1.17475 -0.275166,0.53975 -0.941914,0.87841 -0.656164,0.33867 -1.788577,0.33867 h -0.867831 v 2.94216 h -0.952497 v -7.55648 z m -0.08467,0.81491 h -0.96308 v 2.9845 h 0.761998 q 1.079496,0 1.608661,-0.34925 0.529165,-0.34925 0.529165,-1.18533 0,-0.73025 -0.465665,-1.09008 -0.465665,-0.35984 -1.471079,-0.35984 z m 7.725804,-0.0847 q -1.217079,0 -1.915577,0.81491 -0.698498,0.81492 -0.698498,2.23308 0,1.40758 0.645582,2.23308 0.656164,0.81491 1.95791,0.81491 0.497415,0 0.941914,-0.0847 0.444498,-0.0847 0.86783,-0.21166 v 0.82549 q -0.423332,0.15875 -0.878414,0.23284 -0.444498,0.0741 -1.068913,0.0741 -1.153579,0 -1.92616,-0.47625 -0.772581,-0.47625 -1.164163,-1.35466 -0.380999,-0.87841 -0.380999,-2.06374 0,-1.143 0.412749,-2.01083 0.423332,-0.87842 1.238246,-1.36525 0.814914,-0.49741 1.979077,-0.49741 1.195913,0 2.08491,0.4445 l -0.380999,0.80433 q -0.349249,-0.15875 -0.783164,-0.28575 -0.423332,-0.127 -0.931331,-0.127 z m 8.265557,5.11173 h -1.100663 v 1.7145 h -0.89958 v -1.7145 h -3.619489 v -0.79375 l 3.555989,-5.09056 h 0.96308 v 5.04823 h 1.100663 z m -2.000243,-3.21732 q 0,-0.55033 0.02117,-0.93133 0.02117,-0.39158 0.03175,-0.74083 h -0.04233 q -0.08467,0.20108 -0.211666,0.43391 -0.127,0.23284 -0.243416,0.39159 l -2.264826,3.2279 h 2.709325 z m 7.74698,1.143 q 0,1.21707 -0.254,2.09549 -0.253999,0.86783 -0.80433,1.33349 -0.550332,0.46567 -1.460496,0.46567 -1.280579,0 -1.89441,-1.02658 -0.603249,-1.03716 -0.603249,-2.86807 0,-1.22767 0.243416,-2.0955 0.254,-0.86783 0.804331,-1.32291 0.550332,-0.46567 1.449912,-0.46567 1.269996,0 1.894411,1.02658 0.624415,1.016 0.624415,2.8575 z m -4.085154,0 q 0,1.55574 0.349249,2.32832 0.359832,0.77258 1.217079,0.77258 0.846664,0 1.206496,-0.762 0.370416,-0.77258 0.370416,-2.3389 0,-1.54517 -0.370416,-2.31775 -0.359832,-0.77258 -1.206496,-0.77258 -0.857247,0 -1.217079,0.77258 -0.349249,0.77258 -0.349249,2.31775 z"
       id="text1"
       style="font-size:10.5833px;line-height:1.25;stroke-width:0.264583"
       aria-label="VPC40" />
  </g>
  <g
     inkscape:groupmode="layer"
     id="layer2"
     inkscape:label="components" />
</svg>
